<?xml version="1.0" encoding="UTF-8" standalone="no"?>
<!-- Created with Inkscape (http://www.inkscape.org/) -->

<svg
   version="1.1"
   id="svg1"
   width="143.02933"
   height="161.78934"
   viewBox="0 0 143.02933 161.78934"
   sodipodi:docname="icono-vecindario.svg"
   inkscape:export-filename="icono-vecindario500x500.png"
   inkscape:export-xdpi="296.6821"
   inkscape:export-ydpi="296.6821"
   inkscape:version="1.3.2 (091e20e, 2023-11-25, custom)"
   xmlns:inkscape="http://www.inkscape.org/namespaces/inkscape"
   xmlns:sodipodi="http://sodipodi.sourceforge.net/DTD/sodipodi-0.dtd"
   xmlns="http://www.w3.org/2000/svg"
   xmlns:svg="http://www.w3.org/2000/svg">
  <sodipodi:namedview
     id="namedview1"
     pagecolor="#ffffff"
     bordercolor="#666666"
     borderopacity="1.0"
     inkscape:showpageshadow="2"
     inkscape:pageopacity="0.0"
     inkscape:pagecheckerboard="0"
     inkscape:deskcolor="#d1d1d1"
     inkscape:export-bgcolor="#ffffff00"
     inkscape:zoom="5.0745001"
     inkscape:cx="71.534141"
     inkscape:cy="80.894669"
     inkscape:window-width="1920"
     inkscape:window-height="1017"
     inkscape:window-x="-8"
     inkscape:window-y="-8"
     inkscape:window-maximized="1"
     inkscape:current-layer="svg1" />
  <defs
     id="defs1">
    <clipPath
       clipPathUnits="userSpaceOnUse"
       id="clipPath17">
      <path
         d="M 0,612 H 792 V 0 H 0 Z"
         transform="translate(-145.7305,-282.04101)"
         id="path17" />
    </clipPath>
    <clipPath
       clipPathUnits="userSpaceOnUse"
       id="clipPath19">
      <path
         d="M 0,612 H 792 V 0 H 0 Z"
         transform="translate(-159.187,-323.70951)"
         id="path19" />
    </clipPath>
    <clipPath
       clipPathUnits="userSpaceOnUse"
       id="clipPath41">
      <path
         d="M 0,612 H 792 V 0 H 0 Z"
         transform="translate(-202.53561,-306.61911)"
         id="path41" />
    </clipPath>
  </defs>
  <g
     id="layer-MC0"
     transform="translate(-178.48334,-326.89865)">
    <path
       id="path16"
       d="M 0,0 41.768,-24.115 83.536,0 V 48.229 L 41.768,72.343 0,48.229 Z m 41.768,-36.557 c -1.431,0 -2.842,0.379 -4.081,1.094 L -7.787,-9.209 c -2.518,1.454 -4.081,4.163 -4.081,7.069 v 52.508 c 0,2.907 1.564,5.616 4.081,7.07 l 45.473,26.253 c 1.238,0.715 2.65,1.094 4.082,1.094 1.431,0 2.843,-0.378 4.082,-1.095 L 91.322,57.438 c 2.517,-1.453 4.082,-4.162 4.082,-7.07 V -2.14 c 0,-2.907 -1.565,-5.616 -4.083,-7.07 L 45.849,-35.463 c -1.24,-0.715 -2.65,-1.094 -4.081,-1.094"
       style="fill:#446a3b;fill-opacity:1;fill-rule:nonzero;stroke:none"
       transform="matrix(1.3333333,0,0,-1.3333333,194.30733,439.94533)"
       clip-path="url(#clipPath17)" />
    <path
       id="path18"
       d="m 0,0 27.264,15.741 c 0.648,0.374 1.446,0.374 2.094,0 L 56.622,0 c 0.648,-0.374 1.047,-1.065 1.047,-1.813 v -31.482 c 0,-0.748 -0.399,-1.44 -1.047,-1.814 l -27.264,-15.74 c -0.648,-0.374 -1.446,-0.374 -2.094,0 L 0,-35.109 c -0.648,0.374 -1.047,1.066 -1.047,1.814 v 31.482 c 0,0.748 0.399,1.439 1.047,1.813"
       style="fill:#6da05d;fill-opacity:1;fill-rule:nonzero;stroke:none"
       transform="matrix(1.3333333,0,0,-1.3333333,212.24933,384.38733)"
       clip-path="url(#clipPath19)" />
    <path
       id="path40"
       d="m 0,0 c -4.346,0.054 -8.304,1.278 -11.957,3.896 2.441,2.779 4.092,5.885 4.997,9.393 C -2.313,10.396 0.222,4.324 0,0 m -6.234,-12.485 c -4.135,1.331 -10.466,7.394 -11.872,11.35 1.045,0.705 2.095,1.413 3.028,2.042 1.788,-0.987 3.468,-2.066 5.272,-2.867 1.777,-0.788 3.68,-1.295 5.624,-1.958 -0.11,-2.959 -0.697,-5.853 -2.052,-8.567 m -8.796,-6.501 c -1.378,1.642 -2.611,3.112 -3.867,4.61 1.299,0.985 2.48,1.881 3.681,2.791 1.271,-0.957 2.542,-1.913 3.938,-2.965 -1.221,-1.443 -2.42,-2.861 -3.752,-4.436 m -9.025,6.288 c -1.426,2.867 -2.108,5.703 -2.233,8.684 1.488,0.392 2.92,0.77 4.277,1.127 1.274,-1.921 2.538,-3.827 3.926,-5.92 -1.941,-1.265 -3.918,-2.553 -5.97,-3.891 m -6.096,12.382 c 0.167,4.38 1.48,8.008 4.176,11.065 3.908,4.431 8.806,5.876 14.547,4.622 0.595,-0.13 0.752,-0.339 0.57,-0.959 -2.116,-7.205 -6.844,-11.783 -14.009,-13.833 -1.651,-0.473 -3.404,-0.587 -5.284,-0.895 M 1.753,9.593 c -3.097,5.927 -8.407,9.598 -14.638,10.245 v 2.101 c 0,1.031 -0.836,1.867 -1.866,1.867 -1.032,0 -1.868,-0.836 -1.868,-1.867 v -2.082 c -0.178,-0.015 -0.354,-0.02 -0.534,-0.04 -5.862,-0.656 -10.383,-3.602 -13.566,-8.539 -2.858,-4.433 -4.088,-9.273 -3.343,-14.555 0.081,-0.568 0.296,-0.827 0.884,-0.847 0.907,-0.031 1.812,-0.127 2.762,-0.199 0.028,-0.161 0.053,-0.241 0.055,-0.322 0.133,-4.527 1.692,-8.587 4.032,-12.4 0.303,-0.494 0.594,-0.629 1.136,-0.391 0.908,0.399 1.843,0.736 2.796,1.11 0.077,-0.104 0.167,-0.208 0.238,-0.322 1.663,-2.665 3.869,-4.822 6.267,-6.816 0.663,-0.552 1.088,-0.538 1.747,0.008 2.467,2.041 4.706,4.278 6.397,7.025 0.863,-0.339 1.692,-0.643 2.502,-0.992 0.513,-0.222 0.827,-0.162 1.149,0.357 1.919,3.092 3.295,6.384 3.787,10.01 0.133,0.974 0.193,1.957 0.283,2.902 1.133,0.062 2.209,0.13 3.285,0.177 0.517,0.024 0.688,0.289 0.751,0.785 C 4.587,1.307 3.856,5.572 1.753,9.593"
       style="fill:#446a3b;fill-opacity:1;fill-rule:nonzero;stroke:none"
       transform="matrix(1.3333333,0,0,-1.3333333,270.04747,407.17453)"
       clip-path="url(#clipPath41)" />
  </g>
</svg>
